<svg width="21" height="20" viewBox="0 0 21 20" fill="none" xmlns="http://www.w3.org/2000/svg">
<path d="M16.2757 4.43877C15.2134 3.92721 14.0743 3.55029 12.8833 3.3344C12.8616 3.33023 12.8399 3.34065 12.8287 3.36146C12.6822 3.63496 12.52 3.99171 12.4063 4.27214C11.1253 4.07084 9.85081 4.07084 8.59605 4.27214C8.48238 3.9855 8.31422 3.63496 8.16705 3.36146C8.15588 3.34134 8.1342 3.33092 8.11252 3.3344C6.92216 3.54958 5.78303 3.92649 4.72007 4.43877C4.71086 4.44294 4.70298 4.44987 4.69774 4.45889C2.53706 7.84692 1.94513 11.1517 2.2355 14.4155C2.2368 14.4314 2.24536 14.4467 2.25718 14.4564C3.68273 15.5552 5.06366 16.2222 6.4189 16.6644C6.44058 16.6713 6.46356 16.663 6.47737 16.6443C6.79794 16.1848 7.08371 15.7003 7.32873 15.1908C7.34319 15.1609 7.32938 15.1256 7.29983 15.1137C6.84654 14.9333 6.41493 14.7132 5.99973 14.4634C5.96688 14.4432 5.96425 14.3939 5.99449 14.3703C6.08186 14.3016 6.16926 14.2301 6.25269 14.1579C6.26779 14.1447 6.28882 14.142 6.30656 14.1503C9.03417 15.4573 11.9871 15.4573 14.6826 14.1503C14.7003 14.1412 14.7213 14.144 14.7371 14.1572C14.8205 14.2294 14.9079 14.3016 14.9959 14.3703C15.0261 14.3939 15.0242 14.4432 14.9913 14.4633C14.5761 14.7181 14.1445 14.9332 13.6906 15.113C13.661 15.1248 13.6479 15.1609 13.6624 15.1907C13.9127 15.6995 14.1984 16.184 14.5131 16.6436C14.5262 16.663 14.5499 16.6713 14.5715 16.6644C15.9334 16.2222 17.3143 15.5551 18.7398 14.4564C18.7523 14.4466 18.7602 14.4321 18.7615 14.4161C19.1091 10.6428 18.1795 7.36515 16.2973 4.45954C16.2928 4.44987 16.2849 4.44294 16.2757 4.43877ZM7.73612 12.4281C6.91493 12.4281 6.23827 11.6369 6.23827 10.6651C6.23827 9.69326 6.90178 8.90199 7.73612 8.90199C8.57698 8.90199 9.24709 9.70023 9.23394 10.6651C9.23394 11.6369 8.5704 12.4281 7.73612 12.4281ZM13.2741 12.4281C12.453 12.4281 11.7763 11.6369 11.7763 10.6651C11.7763 9.69326 12.4398 8.90199 13.2741 8.90199C14.115 8.90199 14.7851 9.70023 14.772 10.6651C14.772 11.6369 14.115 12.4281 13.2741 12.4281Z" fill="white"/>
</svg>
