<svg width="20" height="20" viewBox="0 0 20 20" fill="none" xmlns="http://www.w3.org/2000/svg">
<path d="M15.7758 4.43853C14.7136 3.92696 13.5744 3.55005 12.3834 3.33416C12.3617 3.32999 12.34 3.34041 12.3289 3.36122C12.1823 3.63471 12.0201 3.99147 11.9064 4.2719C10.6254 4.0706 9.35093 4.0706 8.09617 4.2719C7.9825 3.98525 7.81434 3.63471 7.66717 3.36122C7.656 3.34109 7.63432 3.33067 7.61264 3.33416C6.42228 3.54933 5.28315 3.92625 4.22019 4.43853C4.21098 4.44269 4.2031 4.44963 4.19786 4.45865C2.03718 7.84668 1.44526 11.1514 1.73562 14.4152C1.73692 14.4312 1.74548 14.4464 1.7573 14.4561C3.18285 15.5549 4.56378 16.222 5.91902 16.6642C5.9407 16.6711 5.96368 16.6628 5.97749 16.644C6.29806 16.1845 6.58383 15.7 6.82885 15.1905C6.84331 15.1607 6.82951 15.1253 6.79995 15.1135C6.34666 14.933 5.91505 14.713 5.49985 14.4631C5.467 14.443 5.46437 14.3937 5.49461 14.3701C5.58198 14.3014 5.66938 14.2299 5.75281 14.1577C5.76792 14.1445 5.78895 14.1417 5.80669 14.15C8.53429 15.4571 11.4873 15.4571 14.1827 14.15C14.2004 14.141 14.2214 14.1438 14.2372 14.157C14.3207 14.2291 14.408 14.3013 14.4961 14.37C14.5263 14.3937 14.5243 14.443 14.4915 14.4631C14.0763 14.7178 13.6447 14.933 13.1907 15.1128C13.1612 15.1246 13.148 15.1607 13.1625 15.1905C13.4128 15.6993 13.6986 16.1838 14.0132 16.6433C14.0264 16.6628 14.05 16.6711 14.0717 16.6641C15.4335 16.222 16.8144 15.5549 18.24 14.4561C18.2525 14.4464 18.2603 14.4318 18.2616 14.4159C18.6092 10.6426 17.6796 7.36491 15.7975 4.4593C15.7929 4.44963 15.785 4.44269 15.7758 4.43853ZM7.23624 12.4279C6.41505 12.4279 5.73839 11.6366 5.73839 10.6648C5.73839 9.69302 6.4019 8.90174 7.23624 8.90174C8.0771 8.90174 8.74722 9.69999 8.73407 10.6648C8.73407 11.6366 8.07052 12.4279 7.23624 12.4279ZM12.7742 12.4279C11.9531 12.4279 11.2764 11.6366 11.2764 10.6648C11.2764 9.69302 11.9399 8.90174 12.7742 8.90174C13.6151 8.90174 14.2852 9.69999 14.2721 10.6648C14.2721 11.6366 13.6152 12.4279 12.7742 12.4279Z" fill="#5865F2"/>
</svg>
