<svg width="20" height="20" viewBox="0 0 20 20" fill="none" xmlns="http://www.w3.org/2000/svg">
<g clip-path="url(#clip0_64_323)">
<path d="M2.5803 11.5106L2.64222 11.4134L6.37055 5.5804C6.38295 5.56108 6.40033 5.54546 6.42086 5.5352C6.44139 5.52493 6.46431 5.52039 6.48721 5.52207C6.5101 5.52374 6.53212 5.53156 6.55094 5.5447C6.56976 5.55784 6.58469 5.57582 6.59415 5.59674C7.21706 6.99278 7.75456 8.72881 7.50287 9.80981C7.39537 10.2544 7.10097 10.8567 6.76958 11.4134C6.72659 11.4945 6.67957 11.5739 6.62969 11.6505C6.618 11.6678 6.6022 11.682 6.58369 11.6918C6.56518 11.7015 6.54455 11.7065 6.52363 11.7064H2.68924C2.58604 11.7064 2.52584 11.5946 2.5803 11.5106Z" fill="#2181E2"/>
<path d="M19.1998 12.5945V13.5176C19.1998 13.5709 19.1674 13.6179 19.1204 13.6385C18.8317 13.7624 17.8436 14.2159 17.4328 14.7872C16.3842 16.2463 15.5833 18.3332 13.7925 18.3332H6.32209C3.67447 18.3332 1.52881 16.1804 1.52881 13.5236V13.4385C1.52881 13.3677 1.58614 13.3103 1.65695 13.3103H5.82157C5.90385 13.3103 5.96433 13.3869 5.95688 13.468C5.92756 13.7433 5.97927 14.0212 6.10566 14.2675C6.22674 14.5124 6.41391 14.7186 6.64601 14.8628C6.87812 15.007 7.14591 15.0833 7.41914 15.0833H9.48082V13.4737H7.44265C7.41879 13.4734 7.39546 13.4666 7.37517 13.4541C7.35488 13.4415 7.3384 13.4237 7.32749 13.4024C7.31658 13.3812 7.31167 13.3574 7.31327 13.3336C7.31487 13.3098 7.32293 13.2869 7.33658 13.2673C7.35894 13.2335 7.38388 13.1985 7.41025 13.1584C7.67618 12.7756 7.92394 12.3805 8.15271 11.9745C8.33961 11.6477 8.52078 11.2985 8.66641 10.9482C8.69593 10.8849 8.71944 10.8201 8.74295 10.7567C8.78279 10.6449 8.82407 10.5403 8.8536 10.4357C8.88284 10.3474 8.90663 10.2545 8.93014 10.1676C8.99922 9.87009 9.02875 9.55505 9.02875 9.22825C9.02875 9.10011 9.02302 8.96596 9.01098 8.83782C9.00524 8.69793 8.98747 8.55803 8.9697 8.41814C8.95602 8.29267 8.93689 8.16786 8.91236 8.04405C8.88167 7.85585 8.84245 7.66913 8.79483 7.48449L8.77849 7.41397C8.74295 7.28583 8.71371 7.16371 8.67243 7.03557C8.55846 6.64334 8.42772 6.25618 8.28056 5.87516C8.22896 5.72925 8.1702 5.58936 8.11143 5.44947C8.02457 5.23877 7.93599 5.04757 7.85515 4.8664C7.81388 4.78384 7.77862 4.70874 7.74336 4.6322C7.70403 4.54608 7.66322 4.46064 7.62095 4.37592C7.59142 4.31286 7.5576 4.2538 7.53409 4.19475L7.28212 3.7295C7.27422 3.71542 7.27066 3.69932 7.27187 3.68323C7.27309 3.66713 7.27903 3.65176 7.28894 3.63902C7.29886 3.62629 7.31232 3.61676 7.32763 3.61164C7.34293 3.60653 7.35941 3.60604 7.375 3.61025L8.95078 4.03737H8.95508C8.95794 4.03737 8.95966 4.03881 8.96081 4.03881L9.16864 4.09614L9.39682 4.16093L9.48082 4.18443V3.24791C9.48082 2.79584 9.84316 2.4292 10.2906 2.4292C10.5145 2.4292 10.7178 2.52036 10.8637 2.66914C11.0093 2.8182 11.1007 3.02116 11.1007 3.24819V4.63822L11.2684 4.68523C11.2822 4.68953 11.2952 4.69601 11.3069 4.70444C11.3481 4.7354 11.4072 4.78098 11.482 4.83687C11.5411 4.88389 11.6044 4.94151 11.6809 5.00027C11.8326 5.12268 12.0135 5.28005 12.2124 5.46122C12.2655 5.50709 12.317 5.5541 12.3643 5.60112C12.6497 5.86377 12.9224 6.13995 13.1813 6.42871C13.2582 6.51557 13.3333 6.60386 13.4098 6.69674C13.4863 6.79105 13.5675 6.88364 13.638 6.97652C13.7309 7.10036 13.8309 7.2285 13.9178 7.36237C13.9591 7.42572 14.0061 7.49051 14.0459 7.55386C14.1577 7.72299 14.2563 7.89843 14.3506 8.07358C14.3905 8.1547 14.4318 8.24299 14.467 8.32985C14.5716 8.56406 14.6539 8.80284 14.707 9.04106C14.7233 9.09266 14.735 9.14856 14.7408 9.19873V9.21048C14.7586 9.28128 14.7646 9.35639 14.7703 9.43293C14.7947 9.67849 14.7808 9.92636 14.729 10.1676C14.7062 10.2719 14.6772 10.3747 14.6422 10.4755C14.6069 10.5759 14.5716 10.6802 14.5258 10.7788C14.437 10.9875 14.3312 11.1884 14.2093 11.3797C14.1695 11.4502 14.1224 11.5253 14.0751 11.5961C14.0235 11.6712 13.9708 11.742 13.9235 11.8111C13.8587 11.8994 13.7896 11.9922 13.7188 12.0748C13.6558 12.1617 13.5907 12.2485 13.5202 12.3251C13.4256 12.4381 13.3283 12.549 13.2286 12.6576C13.1696 12.727 13.1062 12.7978 13.0414 12.8611C12.9784 12.9316 12.9133 12.995 12.8545 13.054C12.7559 13.1527 12.6734 13.2292 12.6043 13.2925L12.4423 13.4413C12.4182 13.4623 12.3874 13.4738 12.3555 13.4737H11.1005V15.0833H12.6791C13.0312 15.0832 13.3717 14.9572 13.6391 14.7282C13.732 14.6473 14.1368 14.2967 14.6155 13.7681C14.6315 13.7502 14.6525 13.7375 14.6757 13.7314L19.0361 12.4707C19.0552 12.4653 19.0753 12.4645 19.0948 12.4682C19.1143 12.4719 19.1327 12.4801 19.1486 12.4921C19.1644 12.504 19.1772 12.5195 19.1861 12.5373C19.1949 12.5551 19.1998 12.5747 19.1998 12.5945Z" fill="#2181E2"/>
</g>
<defs>
<clipPath id="clip0_64_323">
<rect width="20" height="20" fill="white"/>
</clipPath>
</defs>
</svg>
